<?xml version="1.0" encoding="utf-8"?>
<!-- Generator: Adobe Illustrator 16.0.0, SVG Export Plug-In . SVG Version: 6.00 Build 0)  -->
<!DOCTYPE svg PUBLIC "-//W3C//DTD SVG 1.1//EN" "http://www.w3.org/Graphics/SVG/1.1/DTD/svg11.dtd">
<svg version="1.1" id="jm_xA0_Image_1_" xmlns="http://www.w3.org/2000/svg" xmlns:xlink="http://www.w3.org/1999/xlink" x="0px"
	 y="0px" width="417.8px" height="222.4px" viewBox="0 0 417.8 222.4" enable-background="new 0 0 417.8 222.4"
	 xml:space="preserve">
<path fill-rule="evenodd" clip-rule="evenodd" fill="#FFFFFF" d="M155,159c0-51.7,0-103,0-154.6c18.4,0,36.7,0,55.5,0
	c0,6.6,0,13.4,0,21.7c2.2-2.3,3.4-3.4,4.5-4.7c19.7-22.1,47.9-24.6,72-17.4c8.7,2.6,15.1,8.9,20.3,16.2c1.2,1.8,2.4,3.6,3.7,5.5
	c5-4.4,9.4-9.1,14.6-12.9c20.5-15.2,43-16.3,65.7-6.6c16.8,7.2,23.3,22.5,25.5,39.7c0.7,5.9,1,12,1,17.9c0.1,29.8,0,59.7,0,89.5
	c0,1.8,0,3.6,0,5.7c-20.2,0-39.9,0-60,0c0-2.1,0-3.9,0-5.8c0-27.3,0-54.7,0-82c0-2.5-0.1-5-0.5-7.5c-1.7-9.3-8-15.6-16.3-16.5
	c-8.9-1-17.9,3.5-20.9,12.1c-2.3,6.4-3.4,13.6-3.6,20.4c-0.4,24.3-0.2,48.7-0.2,73c0,2,0,3.9,0,6.1c-20.2,0-39.7,0-60,0
	c0-2.1,0-4.1,0-6c0-26.7,0-53.3,0-80c0-2.3-0.1-4.7-0.3-7c-0.9-10.5-6.2-17.1-15-18.5c-9.5-1.6-19.3,3.2-22.6,12.5
	c-2.2,6.3-3.3,13.3-3.5,20c-0.4,24.3-0.2,48.7-0.2,73c0,1.8,0,3.6,0,5.9C194.8,159,175.1,159,155,159z"/>
<path fill-rule="evenodd" clip-rule="evenodd" fill="#FFFFFF" d="M79.3,4.3c20.2,0,39.8,0,60,0c0,2,0,3.8,0,5.6
	c0,50.1,0.1,100.3-0.1,150.4c0,8.8-0.6,17.7-2.1,26.3c-3.5,20.8-16.1,32.7-37,35.1c-18.6,2.2-36.8-0.5-55.6-4.4
	c3-14.5,5.9-28.8,8.8-43.1c4.1,0.3,7.8,0.8,11.6,0.8c6.6,0,11.2-3.4,12.6-9.9c1.1-5,1.6-10.2,1.6-15.3c0.1-46.3,0.1-92.6,0.1-138.9
	C79.3,8.8,79.3,6.6,79.3,4.3z"/>
<path fill-rule="evenodd" clip-rule="evenodd" fill="#FFFFFF" d="M63,64c0,19.5,0,39,0,58.9c-20.8,0-41.7,0-63,0c0-19.5,0-39,0-58.9
	C20.9,64,41.8,64,63,64z"/>
</svg>
